{
 "cells": [
  {
   "cell_type": "code",
   "execution_count": 2,
   "id": "8b8e8a70-48b6-4be6-89d6-b2e4f22e57c0",
   "metadata": {},
   "outputs": [],
   "source": [
    "import subprocess\n",
    "import random\n",
    "import os\n",
    "\n",
    "def concatenate_videos(video_files, output_file, overlay_videos, short_overlay_videos, effects_next):\n",
    "    print('Создание видео путем склеивания без переходов')\n",
    "    \n",
    "    with open(\"file_list.txt\", \"w\") as f:\n",
    "        for video in video_files:\n",
    "            f.write(f\"file '{video}'\\n\")\n",
    "    \n",
    "    command = [\n",
    "        'ffmpeg',\n",
    "        '-f', 'concat',\n",
    "        '-safe', '0',\n",
    "        '-i', 'file_list.txt',\n",
    "        '-c', 'copy',\n",
    "        '-y', output_file\n",
    "    ]\n",
    "    \n",
    "    print(' '.join(command))\n",
    "    try:\n",
    "        subprocess.run(command, shell=False, check=True)\n",
    "        print(\"Видео успешно склеены!\")\n",
    "    except subprocess.CalledProcessError as e:\n",
    "        print(\"Ошибка при склеивании видео:\", e)\n",
    "\n",
    "    durations = []\n",
    "    \n",
    "    for i in range(len(video_files) - 1):\n",
    "        video_duration = get_video_duration(video_files[i])\n",
    "        if effects_next[i]:\n",
    "            durations.append([effects_next[i], float(video_duration)])       \n",
    "    \n",
    "    apply_chromakey_with_overlays(output_file, overlay_videos, short_overlay_videos, durations,)\n",
    "\n",
    "\n",
    "def get_video_duration(video_file):\n",
    "    result = subprocess.run([\"ffprobe\", \"-v\", \"error\", \"-show_entries\", \"format=duration\", \"-of\", \"default=noprint_wrappers=1:nokey=1\", video_file], stdout=subprocess.PIPE, stderr=subprocess.PIPE)\n",
    "    return float(result.stdout)\n",
    "\n",
    "\n",
    "\n",
    "\n",
    "def apply_chromakey_with_overlays(base_video, overlay_videos, short_overlay_videos, durations):\n",
    "    # Выходное видео сохраняется с тем же именем\n",
    "    temp_file = \"videos/temp.mp4\"\n",
    "\n",
    "    filter_complex = []\n",
    "    inputs = [f'-i {base_video}']\n",
    "    for i, dur in enumerate(durations):\n",
    "        if dur[0] == 1:\n",
    "            inputs.append(f'-i {random.choice(overlay_videos)}')\n",
    "        elif dur[0] == 2: \n",
    "            inputs.append(f'-i {random.choice(short_overlay_videos)}')\n",
    "\n",
    "    \n",
    "    overlay_streams = []\n",
    "\n",
    "    duration = 0 \n",
    "    for i, dur in enumerate(durations):\n",
    "        if dur[0] == 1:\n",
    "            tr = f'tr{i}'\n",
    "            over = f'over{i}'\n",
    "            delay = duration + durations[i][1] - 2.5  \n",
    "            duration += durations[i][1]\n",
    "            filter_complex.append(\n",
    "                f'[{i+1}:v]chromakey=0x00FF00:0.1:0.2,setpts=PTS+{delay}/TB[{tr}]'\n",
    "            )\n",
    "            overlay_streams.append(tr)\n",
    "        elif dur[0] == 2:\n",
    "            tr = f'tr{i}'\n",
    "            over = f'over{i}'\n",
    "            delay = duration + durations[i][1] - 0.6\n",
    "            duration += durations[i][1]\n",
    "            filter_complex.append(\n",
    "                f'[{i+1}:v]chromakey=0x00FF00:0.1:0.2,setpts=PTS+{delay}/TB[{tr}]'\n",
    "            )\n",
    "            overlay_streams.append(tr)   \n",
    "            \n",
    "    base = '[0:v]'\n",
    "    for i, over in enumerate(overlay_streams):\n",
    "        output = f'base{i+1}' if i < len(overlay_streams) - 1 else 'v'\n",
    "        filter_complex.append(f'{base}[{over}]overlay[{output}]')\n",
    "        base = f'[{output}]'\n",
    "    \n",
    "    filter_complex_str = '; '.join(filter_complex)\n",
    "    \n",
    "    command = [\n",
    "        'ffmpeg',\n",
    "        *inputs,\n",
    "        '-filter_complex', f'\"{filter_complex_str}\"',\n",
    "        '-map', '[v]',\n",
    "        '-c:v', 'libx264',\n",
    "        '-c:a', 'aac',\n",
    "        '-preset', 'fast',\n",
    "        '-y', temp_file  # Перезаписываем исходный файл\n",
    "    ]\n",
    "\n",
    "    print(' '.join(command))\n",
    "    \n",
    "    subprocess.run(' '.join(command), shell=True)\n",
    "\n",
    "    os.replace(temp_file, base_video)\n",
    "\n",
    "    return base_video  # Возвращаем путь к перезаписанному файлу\n"
   ]
  },
  {
   "cell_type": "code",
   "execution_count": 3,
   "id": "146836c7-aa6e-4bc9-be26-54afd4032114",
   "metadata": {},
   "outputs": [
    {
     "name": "stdout",
     "output_type": "stream",
     "text": [
      "Создание видео путем склеивания без переходов\n",
      "ffmpeg -f concat -safe 0 -i file_list.txt -c copy -y output.mp4\n"
     ]
    },
    {
     "name": "stderr",
     "output_type": "stream",
     "text": [
      "ffmpeg version 4.4.2-0ubuntu0.22.04.1 Copyright (c) 2000-2021 the FFmpeg developers\n",
      "  built with gcc 11 (Ubuntu 11.2.0-19ubuntu1)\n",
      "  configuration: --prefix=/usr --extra-version=0ubuntu0.22.04.1 --toolchain=hardened --libdir=/usr/lib/x86_64-linux-gnu --incdir=/usr/include/x86_64-linux-gnu --arch=amd64 --enable-gpl --disable-stripping --enable-gnutls --enable-ladspa --enable-libaom --enable-libass --enable-libbluray --enable-libbs2b --enable-libcaca --enable-libcdio --enable-libcodec2 --enable-libdav1d --enable-libflite --enable-libfontconfig --enable-libfreetype --enable-libfribidi --enable-libgme --enable-libgsm --enable-libjack --enable-libmp3lame --enable-libmysofa --enable-libopenjpeg --enable-libopenmpt --enable-libopus --enable-libpulse --enable-librabbitmq --enable-librubberband --enable-libshine --enable-libsnappy --enable-libsoxr --enable-libspeex --enable-libsrt --enable-libssh --enable-libtheora --enable-libtwolame --enable-libvidstab --enable-libvorbis --enable-libvpx --enable-libwebp --enable-libx265 --enable-libxml2 --enable-libxvid --enable-libzimg --enable-libzmq --enable-libzvbi --enable-lv2 --enable-omx --enable-openal --enable-opencl --enable-opengl --enable-sdl2 --enable-pocketsphinx --enable-librsvg --enable-libmfx --enable-libdc1394 --enable-libdrm --enable-libiec61883 --enable-chromaprint --enable-frei0r --enable-libx264 --enable-shared\n",
      "  libavutil      56. 70.100 / 56. 70.100\n",
      "  libavcodec     58.134.100 / 58.134.100\n",
      "  libavformat    58. 76.100 / 58. 76.100\n",
      "  libavdevice    58. 13.100 / 58. 13.100\n",
      "  libavfilter     7.110.100 /  7.110.100\n",
      "  libswscale      5.  9.100 /  5.  9.100\n",
      "  libswresample   3.  9.100 /  3.  9.100\n",
      "  libpostproc    55.  9.100 / 55.  9.100\n",
      "[mov,mp4,m4a,3gp,3g2,mj2 @ 0x564f7fab6b80] Auto-inserting h264_mp4toannexb bitstream filter\n",
      "Input #0, concat, from 'file_list.txt':\n",
      "  Duration: N/A, start: 0.000000, bitrate: 457 kb/s\n",
      "  Stream #0:0(und): Video: h264 (High) (avc1 / 0x31637661), yuv420p, 1280x720, 457 kb/s, 30 fps, 30 tbr, 15360 tbn, 60 tbc\n",
      "    Metadata:\n",
      "      handler_name    : VideoHandler\n",
      "      vendor_id       : [0][0][0][0]\n",
      "Output #0, mp4, to 'output.mp4':\n",
      "  Metadata:\n",
      "    encoder         : Lavf58.76.100\n",
      "  Stream #0:0(und): Video: h264 (High) (avc1 / 0x31637661), yuv420p, 1280x720, q=2-31, 457 kb/s, 30 fps, 30 tbr, 15360 tbn, 15360 tbc\n",
      "    Metadata:\n",
      "      handler_name    : VideoHandler\n",
      "      vendor_id       : [0][0][0][0]\n",
      "Stream mapping:\n",
      "  Stream #0:0 -> #0:0 (copy)\n",
      "Press [q] to stop, [?] for help\n",
      "[mov,mp4,m4a,3gp,3g2,mj2 @ 0x564f7fab7c00] Auto-inserting h264_mp4toannexb bitstream filter\n",
      "    Last message repeated 2 times\n",
      "[mov,mp4,m4a,3gp,3g2,mj2 @ 0x564f7fb0ab80] Auto-inserting h264_mp4toannexb bitstream filter\n",
      "[mov,mp4,m4a,3gp,3g2,mj2 @ 0x564f7fb3cf40] Auto-inserting h264_mp4toannexb bitstream filter\n",
      "[mov,mp4,m4a,3gp,3g2,mj2 @ 0x564f7fb0ab80] Auto-inserting h264_mp4toannexb bitstream filter\n",
      "[mov,mp4,m4a,3gp,3g2,mj2 @ 0x564f7fb3e3c0] Auto-inserting h264_mp4toannexb bitstream filter\n",
      "[mov,mp4,m4a,3gp,3g2,mj2 @ 0x564f7fb3d340] Auto-inserting h264_mp4toannexb bitstream filter\n",
      "[mov,mp4,m4a,3gp,3g2,mj2 @ 0x564f7fb3d2c0] Auto-inserting h264_mp4toannexb bitstream filter\n",
      "    Last message repeated 2 times\n",
      "[mov,mp4,m4a,3gp,3g2,mj2 @ 0x564f7fb3d280] Auto-inserting h264_mp4toannexb bitstream filter\n",
      "[mov,mp4,m4a,3gp,3g2,mj2 @ 0x564f7faf83c0] Auto-inserting h264_mp4toannexb bitstream filter\n",
      "[mov,mp4,m4a,3gp,3g2,mj2 @ 0x564f7faf8380] Auto-inserting h264_mp4toannexb bitstream filter\n",
      "[mov,mp4,m4a,3gp,3g2,mj2 @ 0x564f7faf8300] Auto-inserting h264_mp4toannexb bitstream filter\n",
      "    Last message repeated 1 times\n",
      "[mov,mp4,m4a,3gp,3g2,mj2 @ 0x564f7faf8280] Auto-inserting h264_mp4toannexb bitstream filter\n",
      "[mov,mp4,m4a,3gp,3g2,mj2 @ 0x564f7faf7f80] Auto-inserting h264_mp4toannexb bitstream filter\n",
      "[mov,mp4,m4a,3gp,3g2,mj2 @ 0x564f7faf7840] Auto-inserting h264_mp4toannexb bitstream filter\n",
      "    Last message repeated 10 times\n",
      "frame= 5518 fps=0.0 q=-1.0 Lsize=   13586kB time=00:03:03.84 bitrate= 605.4kbits/s speed= 714x    \n",
      "video:13523kB audio:0kB subtitle:0kB other streams:0kB global headers:0kB muxing overhead: 0.469490%\n"
     ]
    },
    {
     "name": "stdout",
     "output_type": "stream",
     "text": [
      "Видео успешно склеены!\n",
      "ffmpeg -i output.mp4 -i videos/vecteezy_red-liquid-transition-green-screen_49115367.mp4 -i videos/vecteezy_transition-ink-gradient-color-green-screen-free_48868911.mp4 -i videos/vecteezy_2-color-liquid-black-and-red-transition-green-screen_49115368.mp4 -i videos/vecteezy_2-color-liquid-black-and-red-transition-green-screen_49115368.mp4 -i videos/vecteezy_transition-ink-gradient-color-green-screen-free_48868911.mp4 -i videos/vecteezy_transition-ink-gradient-color-green-screen-free_48868911.mp4 -i videos/vecteezy_transitions-love-green-screen_48868982.mp4 -i videos/vecteezy_transitions-love-green-screen_48868982.mp4 -i videos/vecteezy_2-color-liquid-black-and-red-transition-green-screen_49115368.mp4 -i videos/vecteezy_transition-ink-gradient-color-green-screen-free_48868911.mp4 -i videos/vecteezy_2-color-liquid-black-and-red-transition-green-screen_49115368.mp4 -i videos/vecteezy_red-liquid-transition-green-screen_49115367.mp4 -i videos/vecteezy_transition-ink-gradient-color-green-screen-free_48868911.mp4 -i videos/vecteezy_red-liquid-transition-green-screen_49115367.mp4 -i videos/vecteezy_red-liquid-transition-green-screen_49115367.mp4 -i videos/vecteezy_red-liquid-transition-green-screen_49115367.mp4 -i videos/vecteezy_2-color-liquid-black-and-red-transition-green-screen_49115368.mp4 -i videos/vecteezy_transition-ink-gradient-color-green-screen-free_48868911.mp4 -i videos/vecteezy_2-color-liquid-black-and-red-transition-green-screen_49115368.mp4 -i videos/vecteezy_transitions-love-green-screen_48868982.mp4 -i videos/vecteezy_transition-ink-gradient-color-green-screen-free_48868911.mp4 -i videos/vecteezy_transition-ink-gradient-color-green-screen-free_48868911.mp4 -i videos/vecteezy_transitions-love-green-screen_48868982.mp4 -i videos/vecteezy_red-liquid-transition-green-screen_49115367.mp4 -i videos/vecteezy_red-liquid-transition-green-screen_49115367.mp4 -i videos/vecteezy_transitions-love-green-screen_48868982.mp4 -i videos/vecteezy_transition-ink-gradient-color-green-screen-free_48868911.mp4 -i videos/vecteezy_transition-ink-gradient-color-green-screen-free_48868911.mp4 -i videos/vecteezy_2-color-liquid-black-and-red-transition-green-screen_49115368.mp4 -filter_complex \"[1:v]chromakey=0x00FF00:0.1:0.2,setpts=PTS+5.034/TB[tr0]; [2:v]chromakey=0x00FF00:0.1:0.2,setpts=PTS+12.568/TB[tr1]; [3:v]chromakey=0x00FF00:0.1:0.2,setpts=PTS+20.102/TB[tr2]; [4:v]chromakey=0x00FF00:0.1:0.2,setpts=PTS+25.236/TB[tr3]; [5:v]chromakey=0x00FF00:0.1:0.2,setpts=PTS+30.370000000000005/TB[tr4]; [6:v]chromakey=0x00FF00:0.1:0.2,setpts=PTS+36.037000000000006/TB[tr5]; [7:v]chromakey=0x00FF00:0.1:0.2,setpts=PTS+40.80400000000001/TB[tr6]; [8:v]chromakey=0x00FF00:0.1:0.2,setpts=PTS+45.53800000000001/TB[tr7]; [9:v]chromakey=0x00FF00:0.1:0.2,setpts=PTS+50.90500000000001/TB[tr8]; [10:v]chromakey=0x00FF00:0.1:0.2,setpts=PTS+55.97200000000001/TB[tr9]; [11:v]chromakey=0x00FF00:0.1:0.2,setpts=PTS+61.63900000000001/TB[tr10]; [12:v]chromakey=0x00FF00:0.1:0.2,setpts=PTS+66.93900000000001/TB[tr11]; [13:v]chromakey=0x00FF00:0.1:0.2,setpts=PTS+71.80600000000001/TB[tr12]; [14:v]chromakey=0x00FF00:0.1:0.2,setpts=PTS+77.14000000000001/TB[tr13]; [15:v]chromakey=0x00FF00:0.1:0.2,setpts=PTS+82.30700000000002/TB[tr14]; [16:v]chromakey=0x00FF00:0.1:0.2,setpts=PTS+87.47400000000002/TB[tr15]; [17:v]chromakey=0x00FF00:0.1:0.2,setpts=PTS+92.64100000000002/TB[tr16]; [18:v]chromakey=0x00FF00:0.1:0.2,setpts=PTS+97.67500000000003/TB[tr17]; [19:v]chromakey=0x00FF00:0.1:0.2,setpts=PTS+100.60900000000002/TB[tr18]; [20:v]chromakey=0x00FF00:0.1:0.2,setpts=PTS+107.20900000000002/TB[tr19]; [21:v]chromakey=0x00FF00:0.1:0.2,setpts=PTS+114.04300000000002/TB[tr20]; [22:v]chromakey=0x00FF00:0.1:0.2,setpts=PTS+118.71000000000002/TB[tr21]; [23:v]chromakey=0x00FF00:0.1:0.2,setpts=PTS+123.97700000000002/TB[tr22]; [24:v]chromakey=0x00FF00:0.1:0.2,setpts=PTS+129.144/TB[tr23]; [25:v]chromakey=0x00FF00:0.1:0.2,setpts=PTS+134.61100000000002/TB[tr24]; [26:v]chromakey=0x00FF00:0.1:0.2,setpts=PTS+142.34500000000003/TB[tr25]; [27:v]chromakey=0x00FF00:0.1:0.2,setpts=PTS+152.77900000000002/TB[tr26]; [28:v]chromakey=0x00FF00:0.1:0.2,setpts=PTS+160.61300000000003/TB[tr27]; [29:v]chromakey=0x00FF00:0.1:0.2,setpts=PTS+177.71300000000002/TB[tr28]; [0:v][tr0]overlay[base1]; [base1][tr1]overlay[base2]; [base2][tr2]overlay[base3]; [base3][tr3]overlay[base4]; [base4][tr4]overlay[base5]; [base5][tr5]overlay[base6]; [base6][tr6]overlay[base7]; [base7][tr7]overlay[base8]; [base8][tr8]overlay[base9]; [base9][tr9]overlay[base10]; [base10][tr10]overlay[base11]; [base11][tr11]overlay[base12]; [base12][tr12]overlay[base13]; [base13][tr13]overlay[base14]; [base14][tr14]overlay[base15]; [base15][tr15]overlay[base16]; [base16][tr16]overlay[base17]; [base17][tr17]overlay[base18]; [base18][tr18]overlay[base19]; [base19][tr19]overlay[base20]; [base20][tr20]overlay[base21]; [base21][tr21]overlay[base22]; [base22][tr22]overlay[base23]; [base23][tr23]overlay[base24]; [base24][tr24]overlay[base25]; [base25][tr25]overlay[base26]; [base26][tr26]overlay[base27]; [base27][tr27]overlay[base28]; [base28][tr28]overlay[v]\" -map [v] -c:v libx264 -c:a aac -preset fast -y videos/temp.mp4\n"
     ]
    },
    {
     "name": "stderr",
     "output_type": "stream",
     "text": [
      "ffmpeg version 4.4.2-0ubuntu0.22.04.1 Copyright (c) 2000-2021 the FFmpeg developers\n",
      "  built with gcc 11 (Ubuntu 11.2.0-19ubuntu1)\n",
      "  configuration: --prefix=/usr --extra-version=0ubuntu0.22.04.1 --toolchain=hardened --libdir=/usr/lib/x86_64-linux-gnu --incdir=/usr/include/x86_64-linux-gnu --arch=amd64 --enable-gpl --disable-stripping --enable-gnutls --enable-ladspa --enable-libaom --enable-libass --enable-libbluray --enable-libbs2b --enable-libcaca --enable-libcdio --enable-libcodec2 --enable-libdav1d --enable-libflite --enable-libfontconfig --enable-libfreetype --enable-libfribidi --enable-libgme --enable-libgsm --enable-libjack --enable-libmp3lame --enable-libmysofa --enable-libopenjpeg --enable-libopenmpt --enable-libopus --enable-libpulse --enable-librabbitmq --enable-librubberband --enable-libshine --enable-libsnappy --enable-libsoxr --enable-libspeex --enable-libsrt --enable-libssh --enable-libtheora --enable-libtwolame --enable-libvidstab --enable-libvorbis --enable-libvpx --enable-libwebp --enable-libx265 --enable-libxml2 --enable-libxvid --enable-libzimg --enable-libzmq --enable-libzvbi --enable-lv2 --enable-omx --enable-openal --enable-opencl --enable-opengl --enable-sdl2 --enable-pocketsphinx --enable-librsvg --enable-libmfx --enable-libdc1394 --enable-libdrm --enable-libiec61883 --enable-chromaprint --enable-frei0r --enable-libx264 --enable-shared\n",
      "  libavutil      56. 70.100 / 56. 70.100\n",
      "  libavcodec     58.134.100 / 58.134.100\n",
      "  libavformat    58. 76.100 / 58. 76.100\n",
      "  libavdevice    58. 13.100 / 58. 13.100\n",
      "  libavfilter     7.110.100 /  7.110.100\n",
      "  libswscale      5.  9.100 /  5.  9.100\n",
      "  libswresample   3.  9.100 /  3.  9.100\n",
      "  libpostproc    55.  9.100 / 55.  9.100\n",
      "Input #0, mov,mp4,m4a,3gp,3g2,mj2, from 'output.mp4':\n",
      "  Metadata:\n",
      "    major_brand     : isom\n",
      "    minor_version   : 512\n",
      "    compatible_brands: isomiso2avc1mp41\n",
      "    encoder         : Lavf58.76.100\n",
      "  Duration: 00:03:03.95, start: 0.000000, bitrate: 605 kb/s\n",
      "  Stream #0:0(und): Video: h264 (High) (avc1 / 0x31637661), yuv420p, 1280x720, 602 kb/s, 30 fps, 30 tbr, 15360 tbn, 60 tbc (default)\n",
      "    Metadata:\n",
      "      handler_name    : VideoHandler\n",
      "      vendor_id       : [0][0][0][0]\n",
      "Input #1, mov,mp4,m4a,3gp,3g2,mj2, from 'videos/vecteezy_red-liquid-transition-green-screen_49115367.mp4':\n",
      "  Metadata:\n",
      "    major_brand     : isom\n",
      "    minor_version   : 512\n",
      "    compatible_brands: isomiso2avc1mp41\n",
      "    encoder         : Lavf59.27.100\n",
      "  Duration: 00:00:05.74, start: 0.000000, bitrate: 2321 kb/s\n",
      "  Stream #1:0(und): Video: h264 (High) (avc1 / 0x31637661), yuv420p(tv, bt709), 1280x720, 2309 kb/s, 30 fps, 30 tbr, 15360 tbn, 60 tbc (default)\n",
      "    Metadata:\n",
      "      handler_name    : VideoHandler\n",
      "      vendor_id       : [0][0][0][0]\n",
      "      encoder         : Lavc59.37.100 libx264\n",
      "  Stream #1:1(und): Audio: aac (LC) (mp4a / 0x6134706D), 44100 Hz, stereo, fltp, 2 kb/s (default)\n",
      "    Metadata:\n",
      "      handler_name    : SoundHandler\n",
      "      vendor_id       : [0][0][0][0]\n",
      "Input #2, mov,mp4,m4a,3gp,3g2,mj2, from 'videos/vecteezy_transition-ink-gradient-color-green-screen-free_48868911.mp4':\n",
      "  Metadata:\n",
      "    major_brand     : isom\n",
      "    minor_version   : 512\n",
      "    compatible_brands: isomiso2avc1mp41\n",
      "    encoder         : Lavf59.27.100\n",
      "  Duration: 00:00:05.74, start: 0.000000, bitrate: 1227 kb/s\n",
      "  Stream #2:0(und): Video: h264 (High) (avc1 / 0x31637661), yuv420p(tv, bt709), 1280x720, 1214 kb/s, 30 fps, 30 tbr, 15360 tbn, 60 tbc (default)\n",
      "    Metadata:\n",
      "      handler_name    : VideoHandler\n",
      "      vendor_id       : [0][0][0][0]\n",
      "      encoder         : Lavc59.37.100 libx264\n",
      "  Stream #2:1(und): Audio: aac (LC) (mp4a / 0x6134706D), 44100 Hz, stereo, fltp, 2 kb/s (default)\n",
      "    Metadata:\n",
      "      handler_name    : SoundHandler\n",
      "      vendor_id       : [0][0][0][0]\n",
      "Input #3, mov,mp4,m4a,3gp,3g2,mj2, from 'videos/vecteezy_2-color-liquid-black-and-red-transition-green-screen_49115368.mp4':\n",
      "  Metadata:\n",
      "    major_brand     : isom\n",
      "    minor_version   : 512\n",
      "    compatible_brands: isomiso2avc1mp41\n",
      "    encoder         : Lavf59.27.100\n",
      "  Duration: 00:00:05.09, start: 0.000000, bitrate: 1122 kb/s\n",
      "  Stream #3:0(und): Video: h264 (High) (avc1 / 0x31637661), yuv420p(tv, bt709), 1280x720, 1113 kb/s, 30 fps, 30 tbr, 15360 tbn, 60 tbc (default)\n",
      "    Metadata:\n",
      "      handler_name    : VideoHandler\n",
      "      vendor_id       : [0][0][0][0]\n",
      "      encoder         : Lavc59.37.100 libx264\n",
      "  Stream #3:1(und): Audio: aac (LC) (mp4a / 0x6134706D), 44100 Hz, stereo, fltp, 2 kb/s (default)\n",
      "    Metadata:\n",
      "      handler_name    : SoundHandler\n",
      "      vendor_id       : [0][0][0][0]\n",
      "Input #4, mov,mp4,m4a,3gp,3g2,mj2, from 'videos/vecteezy_2-color-liquid-black-and-red-transition-green-screen_49115368.mp4':\n",
      "  Metadata:\n",
      "    major_brand     : isom\n",
      "    minor_version   : 512\n",
      "    compatible_brands: isomiso2avc1mp41\n",
      "    encoder         : Lavf59.27.100\n",
      "  Duration: 00:00:05.09, start: 0.000000, bitrate: 1122 kb/s\n",
      "  Stream #4:0(und): Video: h264 (High) (avc1 / 0x31637661), yuv420p(tv, bt709), 1280x720, 1113 kb/s, 30 fps, 30 tbr, 15360 tbn, 60 tbc (default)\n",
      "    Metadata:\n",
      "      handler_name    : VideoHandler\n",
      "      vendor_id       : [0][0][0][0]\n",
      "      encoder         : Lavc59.37.100 libx264\n",
      "  Stream #4:1(und): Audio: aac (LC) (mp4a / 0x6134706D), 44100 Hz, stereo, fltp, 2 kb/s (default)\n",
      "    Metadata:\n",
      "      handler_name    : SoundHandler\n",
      "      vendor_id       : [0][0][0][0]\n",
      "Input #5, mov,mp4,m4a,3gp,3g2,mj2, from 'videos/vecteezy_transition-ink-gradient-color-green-screen-free_48868911.mp4':\n",
      "  Metadata:\n",
      "    major_brand     : isom\n",
      "    minor_version   : 512\n",
      "    compatible_brands: isomiso2avc1mp41\n",
      "    encoder         : Lavf59.27.100\n",
      "  Duration: 00:00:05.74, start: 0.000000, bitrate: 1227 kb/s\n",
      "  Stream #5:0(und): Video: h264 (High) (avc1 / 0x31637661), yuv420p(tv, bt709), 1280x720, 1214 kb/s, 30 fps, 30 tbr, 15360 tbn, 60 tbc (default)\n",
      "    Metadata:\n",
      "      handler_name    : VideoHandler\n",
      "      vendor_id       : [0][0][0][0]\n",
      "      encoder         : Lavc59.37.100 libx264\n",
      "  Stream #5:1(und): Audio: aac (LC) (mp4a / 0x6134706D), 44100 Hz, stereo, fltp, 2 kb/s (default)\n",
      "    Metadata:\n",
      "      handler_name    : SoundHandler\n",
      "      vendor_id       : [0][0][0][0]\n",
      "Input #6, mov,mp4,m4a,3gp,3g2,mj2, from 'videos/vecteezy_transition-ink-gradient-color-green-screen-free_48868911.mp4':\n",
      "  Metadata:\n",
      "    major_brand     : isom\n",
      "    minor_version   : 512\n",
      "    compatible_brands: isomiso2avc1mp41\n",
      "    encoder         : Lavf59.27.100\n",
      "  Duration: 00:00:05.74, start: 0.000000, bitrate: 1227 kb/s\n",
      "  Stream #6:0(und): Video: h264 (High) (avc1 / 0x31637661), yuv420p(tv, bt709), 1280x720, 1214 kb/s, 30 fps, 30 tbr, 15360 tbn, 60 tbc (default)\n",
      "    Metadata:\n",
      "      handler_name    : VideoHandler\n",
      "      vendor_id       : [0][0][0][0]\n",
      "      encoder         : Lavc59.37.100 libx264\n",
      "  Stream #6:1(und): Audio: aac (LC) (mp4a / 0x6134706D), 44100 Hz, stereo, fltp, 2 kb/s (default)\n",
      "    Metadata:\n",
      "      handler_name    : SoundHandler\n",
      "      vendor_id       : [0][0][0][0]\n",
      "Input #7, mov,mp4,m4a,3gp,3g2,mj2, from 'videos/vecteezy_transitions-love-green-screen_48868982.mp4':\n",
      "  Metadata:\n",
      "    major_brand     : isom\n",
      "    minor_version   : 512\n",
      "    compatible_brands: isomiso2avc1mp41\n",
      "    encoder         : Lavf59.27.100\n",
      "  Duration: 00:00:05.92, start: 0.000000, bitrate: 440 kb/s\n",
      "  Stream #7:0(und): Video: h264 (High) (avc1 / 0x31637661), yuv420p(tv, bt709), 1280x720, 429 kb/s, 30 fps, 30 tbr, 15360 tbn, 60 tbc (default)\n",
      "    Metadata:\n",
      "      handler_name    : VideoHandler\n",
      "      vendor_id       : [0][0][0][0]\n",
      "      encoder         : Lavc59.37.100 libx264\n",
      "  Stream #7:1(und): Audio: aac (LC) (mp4a / 0x6134706D), 44100 Hz, stereo, fltp, 2 kb/s (default)\n",
      "    Metadata:\n",
      "      handler_name    : SoundHandler\n",
      "      vendor_id       : [0][0][0][0]\n",
      "Input #8, mov,mp4,m4a,3gp,3g2,mj2, from 'videos/vecteezy_transitions-love-green-screen_48868982.mp4':\n",
      "  Metadata:\n",
      "    major_brand     : isom\n",
      "    minor_version   : 512\n",
      "    compatible_brands: isomiso2avc1mp41\n",
      "    encoder         : Lavf59.27.100\n",
      "  Duration: 00:00:05.92, start: 0.000000, bitrate: 440 kb/s\n",
      "  Stream #8:0(und): Video: h264 (High) (avc1 / 0x31637661), yuv420p(tv, bt709), 1280x720, 429 kb/s, 30 fps, 30 tbr, 15360 tbn, 60 tbc (default)\n",
      "    Metadata:\n",
      "      handler_name    : VideoHandler\n",
      "      vendor_id       : [0][0][0][0]\n",
      "      encoder         : Lavc59.37.100 libx264\n",
      "  Stream #8:1(und): Audio: aac (LC) (mp4a / 0x6134706D), 44100 Hz, stereo, fltp, 2 kb/s (default)\n",
      "    Metadata:\n",
      "      handler_name    : SoundHandler\n",
      "      vendor_id       : [0][0][0][0]\n",
      "Input #9, mov,mp4,m4a,3gp,3g2,mj2, from 'videos/vecteezy_2-color-liquid-black-and-red-transition-green-screen_49115368.mp4':\n",
      "  Metadata:\n",
      "    major_brand     : isom\n",
      "    minor_version   : 512\n",
      "    compatible_brands: isomiso2avc1mp41\n",
      "    encoder         : Lavf59.27.100\n",
      "  Duration: 00:00:05.09, start: 0.000000, bitrate: 1122 kb/s\n",
      "  Stream #9:0(und): Video: h264 (High) (avc1 / 0x31637661), yuv420p(tv, bt709), 1280x720, 1113 kb/s, 30 fps, 30 tbr, 15360 tbn, 60 tbc (default)\n",
      "    Metadata:\n",
      "      handler_name    : VideoHandler\n",
      "      vendor_id       : [0][0][0][0]\n",
      "      encoder         : Lavc59.37.100 libx264\n",
      "  Stream #9:1(und): Audio: aac (LC) (mp4a / 0x6134706D), 44100 Hz, stereo, fltp, 2 kb/s (default)\n",
      "    Metadata:\n",
      "      handler_name    : SoundHandler\n",
      "      vendor_id       : [0][0][0][0]\n",
      "Input #10, mov,mp4,m4a,3gp,3g2,mj2, from 'videos/vecteezy_transition-ink-gradient-color-green-screen-free_48868911.mp4':\n",
      "  Metadata:\n",
      "    major_brand     : isom\n",
      "    minor_version   : 512\n",
      "    compatible_brands: isomiso2avc1mp41\n",
      "    encoder         : Lavf59.27.100\n",
      "  Duration: 00:00:05.74, start: 0.000000, bitrate: 1227 kb/s\n",
      "  Stream #10:0(und): Video: h264 (High) (avc1 / 0x31637661), yuv420p(tv, bt709), 1280x720, 1214 kb/s, 30 fps, 30 tbr, 15360 tbn, 60 tbc (default)\n",
      "    Metadata:\n",
      "      handler_name    : VideoHandler\n",
      "      vendor_id       : [0][0][0][0]\n",
      "      encoder         : Lavc59.37.100 libx264\n",
      "  Stream #10:1(und): Audio: aac (LC) (mp4a / 0x6134706D), 44100 Hz, stereo, fltp, 2 kb/s (default)\n",
      "    Metadata:\n",
      "      handler_name    : SoundHandler\n",
      "      vendor_id       : [0][0][0][0]\n",
      "Input #11, mov,mp4,m4a,3gp,3g2,mj2, from 'videos/vecteezy_2-color-liquid-black-and-red-transition-green-screen_49115368.mp4':\n",
      "  Metadata:\n",
      "    major_brand     : isom\n",
      "    minor_version   : 512\n",
      "    compatible_brands: isomiso2avc1mp41\n",
      "    encoder         : Lavf59.27.100\n",
      "  Duration: 00:00:05.09, start: 0.000000, bitrate: 1122 kb/s\n",
      "  Stream #11:0(und): Video: h264 (High) (avc1 / 0x31637661), yuv420p(tv, bt709), 1280x720, 1113 kb/s, 30 fps, 30 tbr, 15360 tbn, 60 tbc (default)\n",
      "    Metadata:\n",
      "      handler_name    : VideoHandler\n",
      "      vendor_id       : [0][0][0][0]\n",
      "      encoder         : Lavc59.37.100 libx264\n",
      "  Stream #11:1(und): Audio: aac (LC) (mp4a / 0x6134706D), 44100 Hz, stereo, fltp, 2 kb/s (default)\n",
      "    Metadata:\n",
      "      handler_name    : SoundHandler\n",
      "      vendor_id       : [0][0][0][0]\n",
      "Input #12, mov,mp4,m4a,3gp,3g2,mj2, from 'videos/vecteezy_red-liquid-transition-green-screen_49115367.mp4':\n",
      "  Metadata:\n",
      "    major_brand     : isom\n",
      "    minor_version   : 512\n",
      "    compatible_brands: isomiso2avc1mp41\n",
      "    encoder         : Lavf59.27.100\n",
      "  Duration: 00:00:05.74, start: 0.000000, bitrate: 2321 kb/s\n",
      "  Stream #12:0(und): Video: h264 (High) (avc1 / 0x31637661), yuv420p(tv, bt709), 1280x720, 2309 kb/s, 30 fps, 30 tbr, 15360 tbn, 60 tbc (default)\n",
      "    Metadata:\n",
      "      handler_name    : VideoHandler\n",
      "      vendor_id       : [0][0][0][0]\n",
      "      encoder         : Lavc59.37.100 libx264\n",
      "  Stream #12:1(und): Audio: aac (LC) (mp4a / 0x6134706D), 44100 Hz, stereo, fltp, 2 kb/s (default)\n",
      "    Metadata:\n",
      "      handler_name    : SoundHandler\n",
      "      vendor_id       : [0][0][0][0]\n",
      "Input #13, mov,mp4,m4a,3gp,3g2,mj2, from 'videos/vecteezy_transition-ink-gradient-color-green-screen-free_48868911.mp4':\n",
      "  Metadata:\n",
      "    major_brand     : isom\n",
      "    minor_version   : 512\n",
      "    compatible_brands: isomiso2avc1mp41\n",
      "    encoder         : Lavf59.27.100\n",
      "  Duration: 00:00:05.74, start: 0.000000, bitrate: 1227 kb/s\n",
      "  Stream #13:0(und): Video: h264 (High) (avc1 / 0x31637661), yuv420p(tv, bt709), 1280x720, 1214 kb/s, 30 fps, 30 tbr, 15360 tbn, 60 tbc (default)\n",
      "    Metadata:\n",
      "      handler_name    : VideoHandler\n",
      "      vendor_id       : [0][0][0][0]\n",
      "      encoder         : Lavc59.37.100 libx264\n",
      "  Stream #13:1(und): Audio: aac (LC) (mp4a / 0x6134706D), 44100 Hz, stereo, fltp, 2 kb/s (default)\n",
      "    Metadata:\n",
      "      handler_name    : SoundHandler\n",
      "      vendor_id       : [0][0][0][0]\n",
      "Input #14, mov,mp4,m4a,3gp,3g2,mj2, from 'videos/vecteezy_red-liquid-transition-green-screen_49115367.mp4':\n",
      "  Metadata:\n",
      "    major_brand     : isom\n",
      "    minor_version   : 512\n",
      "    compatible_brands: isomiso2avc1mp41\n",
      "    encoder         : Lavf59.27.100\n",
      "  Duration: 00:00:05.74, start: 0.000000, bitrate: 2321 kb/s\n",
      "  Stream #14:0(und): Video: h264 (High) (avc1 / 0x31637661), yuv420p(tv, bt709), 1280x720, 2309 kb/s, 30 fps, 30 tbr, 15360 tbn, 60 tbc (default)\n",
      "    Metadata:\n",
      "      handler_name    : VideoHandler\n",
      "      vendor_id       : [0][0][0][0]\n",
      "      encoder         : Lavc59.37.100 libx264\n",
      "  Stream #14:1(und): Audio: aac (LC) (mp4a / 0x6134706D), 44100 Hz, stereo, fltp, 2 kb/s (default)\n",
      "    Metadata:\n",
      "      handler_name    : SoundHandler\n",
      "      vendor_id       : [0][0][0][0]\n",
      "Input #15, mov,mp4,m4a,3gp,3g2,mj2, from 'videos/vecteezy_red-liquid-transition-green-screen_49115367.mp4':\n",
      "  Metadata:\n",
      "    major_brand     : isom\n",
      "    minor_version   : 512\n",
      "    compatible_brands: isomiso2avc1mp41\n",
      "    encoder         : Lavf59.27.100\n",
      "  Duration: 00:00:05.74, start: 0.000000, bitrate: 2321 kb/s\n",
      "  Stream #15:0(und): Video: h264 (High) (avc1 / 0x31637661), yuv420p(tv, bt709), 1280x720, 2309 kb/s, 30 fps, 30 tbr, 15360 tbn, 60 tbc (default)\n",
      "    Metadata:\n",
      "      handler_name    : VideoHandler\n",
      "      vendor_id       : [0][0][0][0]\n",
      "      encoder         : Lavc59.37.100 libx264\n",
      "  Stream #15:1(und): Audio: aac (LC) (mp4a / 0x6134706D), 44100 Hz, stereo, fltp, 2 kb/s (default)\n",
      "    Metadata:\n",
      "      handler_name    : SoundHandler\n",
      "      vendor_id       : [0][0][0][0]\n",
      "Input #16, mov,mp4,m4a,3gp,3g2,mj2, from 'videos/vecteezy_red-liquid-transition-green-screen_49115367.mp4':\n",
      "  Metadata:\n",
      "    major_brand     : isom\n",
      "    minor_version   : 512\n",
      "    compatible_brands: isomiso2avc1mp41\n",
      "    encoder         : Lavf59.27.100\n",
      "  Duration: 00:00:05.74, start: 0.000000, bitrate: 2321 kb/s\n",
      "  Stream #16:0(und): Video: h264 (High) (avc1 / 0x31637661), yuv420p(tv, bt709), 1280x720, 2309 kb/s, 30 fps, 30 tbr, 15360 tbn, 60 tbc (default)\n",
      "    Metadata:\n",
      "      handler_name    : VideoHandler\n",
      "      vendor_id       : [0][0][0][0]\n",
      "      encoder         : Lavc59.37.100 libx264\n",
      "  Stream #16:1(und): Audio: aac (LC) (mp4a / 0x6134706D), 44100 Hz, stereo, fltp, 2 kb/s (default)\n",
      "    Metadata:\n",
      "      handler_name    : SoundHandler\n",
      "      vendor_id       : [0][0][0][0]\n",
      "Input #17, mov,mp4,m4a,3gp,3g2,mj2, from 'videos/vecteezy_2-color-liquid-black-and-red-transition-green-screen_49115368.mp4':\n",
      "  Metadata:\n",
      "    major_brand     : isom\n",
      "    minor_version   : 512\n",
      "    compatible_brands: isomiso2avc1mp41\n",
      "    encoder         : Lavf59.27.100\n",
      "  Duration: 00:00:05.09, start: 0.000000, bitrate: 1122 kb/s\n",
      "  Stream #17:0(und): Video: h264 (High) (avc1 / 0x31637661), yuv420p(tv, bt709), 1280x720, 1113 kb/s, 30 fps, 30 tbr, 15360 tbn, 60 tbc (default)\n",
      "    Metadata:\n",
      "      handler_name    : VideoHandler\n",
      "      vendor_id       : [0][0][0][0]\n",
      "      encoder         : Lavc59.37.100 libx264\n",
      "  Stream #17:1(und): Audio: aac (LC) (mp4a / 0x6134706D), 44100 Hz, stereo, fltp, 2 kb/s (default)\n",
      "    Metadata:\n",
      "      handler_name    : SoundHandler\n",
      "      vendor_id       : [0][0][0][0]\n",
      "Input #18, mov,mp4,m4a,3gp,3g2,mj2, from 'videos/vecteezy_transition-ink-gradient-color-green-screen-free_48868911.mp4':\n",
      "  Metadata:\n",
      "    major_brand     : isom\n",
      "    minor_version   : 512\n",
      "    compatible_brands: isomiso2avc1mp41\n",
      "    encoder         : Lavf59.27.100\n",
      "  Duration: 00:00:05.74, start: 0.000000, bitrate: 1227 kb/s\n",
      "  Stream #18:0(und): Video: h264 (High) (avc1 / 0x31637661), yuv420p(tv, bt709), 1280x720, 1214 kb/s, 30 fps, 30 tbr, 15360 tbn, 60 tbc (default)\n",
      "    Metadata:\n",
      "      handler_name    : VideoHandler\n",
      "      vendor_id       : [0][0][0][0]\n",
      "      encoder         : Lavc59.37.100 libx264\n",
      "  Stream #18:1(und): Audio: aac (LC) (mp4a / 0x6134706D), 44100 Hz, stereo, fltp, 2 kb/s (default)\n",
      "    Metadata:\n",
      "      handler_name    : SoundHandler\n",
      "      vendor_id       : [0][0][0][0]\n",
      "Input #19, mov,mp4,m4a,3gp,3g2,mj2, from 'videos/vecteezy_2-color-liquid-black-and-red-transition-green-screen_49115368.mp4':\n",
      "  Metadata:\n",
      "    major_brand     : isom\n",
      "    minor_version   : 512\n",
      "    compatible_brands: isomiso2avc1mp41\n",
      "    encoder         : Lavf59.27.100\n",
      "  Duration: 00:00:05.09, start: 0.000000, bitrate: 1122 kb/s\n",
      "  Stream #19:0(und): Video: h264 (High) (avc1 / 0x31637661), yuv420p(tv, bt709), 1280x720, 1113 kb/s, 30 fps, 30 tbr, 15360 tbn, 60 tbc (default)\n",
      "    Metadata:\n",
      "      handler_name    : VideoHandler\n",
      "      vendor_id       : [0][0][0][0]\n",
      "      encoder         : Lavc59.37.100 libx264\n",
      "  Stream #19:1(und): Audio: aac (LC) (mp4a / 0x6134706D), 44100 Hz, stereo, fltp, 2 kb/s (default)\n",
      "    Metadata:\n",
      "      handler_name    : SoundHandler\n",
      "      vendor_id       : [0][0][0][0]\n",
      "Input #20, mov,mp4,m4a,3gp,3g2,mj2, from 'videos/vecteezy_transitions-love-green-screen_48868982.mp4':\n",
      "  Metadata:\n",
      "    major_brand     : isom\n",
      "    minor_version   : 512\n",
      "    compatible_brands: isomiso2avc1mp41\n",
      "    encoder         : Lavf59.27.100\n",
      "  Duration: 00:00:05.92, start: 0.000000, bitrate: 440 kb/s\n",
      "  Stream #20:0(und): Video: h264 (High) (avc1 / 0x31637661), yuv420p(tv, bt709), 1280x720, 429 kb/s, 30 fps, 30 tbr, 15360 tbn, 60 tbc (default)\n",
      "    Metadata:\n",
      "      handler_name    : VideoHandler\n",
      "      vendor_id       : [0][0][0][0]\n",
      "      encoder         : Lavc59.37.100 libx264\n",
      "  Stream #20:1(und): Audio: aac (LC) (mp4a / 0x6134706D), 44100 Hz, stereo, fltp, 2 kb/s (default)\n",
      "    Metadata:\n",
      "      handler_name    : SoundHandler\n",
      "      vendor_id       : [0][0][0][0]\n",
      "Input #21, mov,mp4,m4a,3gp,3g2,mj2, from 'videos/vecteezy_transition-ink-gradient-color-green-screen-free_48868911.mp4':\n",
      "  Metadata:\n",
      "    major_brand     : isom\n",
      "    minor_version   : 512\n",
      "    compatible_brands: isomiso2avc1mp41\n",
      "    encoder         : Lavf59.27.100\n",
      "  Duration: 00:00:05.74, start: 0.000000, bitrate: 1227 kb/s\n",
      "  Stream #21:0(und): Video: h264 (High) (avc1 / 0x31637661), yuv420p(tv, bt709), 1280x720, 1214 kb/s, 30 fps, 30 tbr, 15360 tbn, 60 tbc (default)\n",
      "    Metadata:\n",
      "      handler_name    : VideoHandler\n",
      "      vendor_id       : [0][0][0][0]\n",
      "      encoder         : Lavc59.37.100 libx264\n",
      "  Stream #21:1(und): Audio: aac (LC) (mp4a / 0x6134706D), 44100 Hz, stereo, fltp, 2 kb/s (default)\n",
      "    Metadata:\n",
      "      handler_name    : SoundHandler\n",
      "      vendor_id       : [0][0][0][0]\n",
      "Input #22, mov,mp4,m4a,3gp,3g2,mj2, from 'videos/vecteezy_transition-ink-gradient-color-green-screen-free_48868911.mp4':\n",
      "  Metadata:\n",
      "    major_brand     : isom\n",
      "    minor_version   : 512\n",
      "    compatible_brands: isomiso2avc1mp41\n",
      "    encoder         : Lavf59.27.100\n",
      "  Duration: 00:00:05.74, start: 0.000000, bitrate: 1227 kb/s\n",
      "  Stream #22:0(und): Video: h264 (High) (avc1 / 0x31637661), yuv420p(tv, bt709), 1280x720, 1214 kb/s, 30 fps, 30 tbr, 15360 tbn, 60 tbc (default)\n",
      "    Metadata:\n",
      "      handler_name    : VideoHandler\n",
      "      vendor_id       : [0][0][0][0]\n",
      "      encoder         : Lavc59.37.100 libx264\n",
      "  Stream #22:1(und): Audio: aac (LC) (mp4a / 0x6134706D), 44100 Hz, stereo, fltp, 2 kb/s (default)\n",
      "    Metadata:\n",
      "      handler_name    : SoundHandler\n",
      "      vendor_id       : [0][0][0][0]\n",
      "Input #23, mov,mp4,m4a,3gp,3g2,mj2, from 'videos/vecteezy_transitions-love-green-screen_48868982.mp4':\n",
      "  Metadata:\n",
      "    major_brand     : isom\n",
      "    minor_version   : 512\n",
      "    compatible_brands: isomiso2avc1mp41\n",
      "    encoder         : Lavf59.27.100\n",
      "  Duration: 00:00:05.92, start: 0.000000, bitrate: 440 kb/s\n",
      "  Stream #23:0(und): Video: h264 (High) (avc1 / 0x31637661), yuv420p(tv, bt709), 1280x720, 429 kb/s, 30 fps, 30 tbr, 15360 tbn, 60 tbc (default)\n",
      "    Metadata:\n",
      "      handler_name    : VideoHandler\n",
      "      vendor_id       : [0][0][0][0]\n",
      "      encoder         : Lavc59.37.100 libx264\n",
      "  Stream #23:1(und): Audio: aac (LC) (mp4a / 0x6134706D), 44100 Hz, stereo, fltp, 2 kb/s (default)\n",
      "    Metadata:\n",
      "      handler_name    : SoundHandler\n",
      "      vendor_id       : [0][0][0][0]\n",
      "Input #24, mov,mp4,m4a,3gp,3g2,mj2, from 'videos/vecteezy_red-liquid-transition-green-screen_49115367.mp4':\n",
      "  Metadata:\n",
      "    major_brand     : isom\n",
      "    minor_version   : 512\n",
      "    compatible_brands: isomiso2avc1mp41\n",
      "    encoder         : Lavf59.27.100\n",
      "  Duration: 00:00:05.74, start: 0.000000, bitrate: 2321 kb/s\n",
      "  Stream #24:0(und): Video: h264 (High) (avc1 / 0x31637661), yuv420p(tv, bt709), 1280x720, 2309 kb/s, 30 fps, 30 tbr, 15360 tbn, 60 tbc (default)\n",
      "    Metadata:\n",
      "      handler_name    : VideoHandler\n",
      "      vendor_id       : [0][0][0][0]\n",
      "      encoder         : Lavc59.37.100 libx264\n",
      "  Stream #24:1(und): Audio: aac (LC) (mp4a / 0x6134706D), 44100 Hz, stereo, fltp, 2 kb/s (default)\n",
      "    Metadata:\n",
      "      handler_name    : SoundHandler\n",
      "      vendor_id       : [0][0][0][0]\n",
      "Input #25, mov,mp4,m4a,3gp,3g2,mj2, from 'videos/vecteezy_red-liquid-transition-green-screen_49115367.mp4':\n",
      "  Metadata:\n",
      "    major_brand     : isom\n",
      "    minor_version   : 512\n",
      "    compatible_brands: isomiso2avc1mp41\n",
      "    encoder         : Lavf59.27.100\n",
      "  Duration: 00:00:05.74, start: 0.000000, bitrate: 2321 kb/s\n",
      "  Stream #25:0(und): Video: h264 (High) (avc1 / 0x31637661), yuv420p(tv, bt709), 1280x720, 2309 kb/s, 30 fps, 30 tbr, 15360 tbn, 60 tbc (default)\n",
      "    Metadata:\n",
      "      handler_name    : VideoHandler\n",
      "      vendor_id       : [0][0][0][0]\n",
      "      encoder         : Lavc59.37.100 libx264\n",
      "  Stream #25:1(und): Audio: aac (LC) (mp4a / 0x6134706D), 44100 Hz, stereo, fltp, 2 kb/s (default)\n",
      "    Metadata:\n",
      "      handler_name    : SoundHandler\n",
      "      vendor_id       : [0][0][0][0]\n",
      "Input #26, mov,mp4,m4a,3gp,3g2,mj2, from 'videos/vecteezy_transitions-love-green-screen_48868982.mp4':\n",
      "  Metadata:\n",
      "    major_brand     : isom\n",
      "    minor_version   : 512\n",
      "    compatible_brands: isomiso2avc1mp41\n",
      "    encoder         : Lavf59.27.100\n",
      "  Duration: 00:00:05.92, start: 0.000000, bitrate: 440 kb/s\n",
      "  Stream #26:0(und): Video: h264 (High) (avc1 / 0x31637661), yuv420p(tv, bt709), 1280x720, 429 kb/s, 30 fps, 30 tbr, 15360 tbn, 60 tbc (default)\n",
      "    Metadata:\n",
      "      handler_name    : VideoHandler\n",
      "      vendor_id       : [0][0][0][0]\n",
      "      encoder         : Lavc59.37.100 libx264\n",
      "  Stream #26:1(und): Audio: aac (LC) (mp4a / 0x6134706D), 44100 Hz, stereo, fltp, 2 kb/s (default)\n",
      "    Metadata:\n",
      "      handler_name    : SoundHandler\n",
      "      vendor_id       : [0][0][0][0]\n",
      "Input #27, mov,mp4,m4a,3gp,3g2,mj2, from 'videos/vecteezy_transition-ink-gradient-color-green-screen-free_48868911.mp4':\n",
      "  Metadata:\n",
      "    major_brand     : isom\n",
      "    minor_version   : 512\n",
      "    compatible_brands: isomiso2avc1mp41\n",
      "    encoder         : Lavf59.27.100\n",
      "  Duration: 00:00:05.74, start: 0.000000, bitrate: 1227 kb/s\n",
      "  Stream #27:0(und): Video: h264 (High) (avc1 / 0x31637661), yuv420p(tv, bt709), 1280x720, 1214 kb/s, 30 fps, 30 tbr, 15360 tbn, 60 tbc (default)\n",
      "    Metadata:\n",
      "      handler_name    : VideoHandler\n",
      "      vendor_id       : [0][0][0][0]\n",
      "      encoder         : Lavc59.37.100 libx264\n",
      "  Stream #27:1(und): Audio: aac (LC) (mp4a / 0x6134706D), 44100 Hz, stereo, fltp, 2 kb/s (default)\n",
      "    Metadata:\n",
      "      handler_name    : SoundHandler\n",
      "      vendor_id       : [0][0][0][0]\n",
      "Input #28, mov,mp4,m4a,3gp,3g2,mj2, from 'videos/vecteezy_transition-ink-gradient-color-green-screen-free_48868911.mp4':\n",
      "  Metadata:\n",
      "    major_brand     : isom\n",
      "    minor_version   : 512\n",
      "    compatible_brands: isomiso2avc1mp41\n",
      "    encoder         : Lavf59.27.100\n",
      "  Duration: 00:00:05.74, start: 0.000000, bitrate: 1227 kb/s\n",
      "  Stream #28:0(und): Video: h264 (High) (avc1 / 0x31637661), yuv420p(tv, bt709), 1280x720, 1214 kb/s, 30 fps, 30 tbr, 15360 tbn, 60 tbc (default)\n",
      "    Metadata:\n",
      "      handler_name    : VideoHandler\n",
      "      vendor_id       : [0][0][0][0]\n",
      "      encoder         : Lavc59.37.100 libx264\n",
      "  Stream #28:1(und): Audio: aac (LC) (mp4a / 0x6134706D), 44100 Hz, stereo, fltp, 2 kb/s (default)\n",
      "    Metadata:\n",
      "      handler_name    : SoundHandler\n",
      "      vendor_id       : [0][0][0][0]\n",
      "Input #29, mov,mp4,m4a,3gp,3g2,mj2, from 'videos/vecteezy_2-color-liquid-black-and-red-transition-green-screen_49115368.mp4':\n",
      "  Metadata:\n",
      "    major_brand     : isom\n",
      "    minor_version   : 512\n",
      "    compatible_brands: isomiso2avc1mp41\n",
      "    encoder         : Lavf59.27.100\n",
      "  Duration: 00:00:05.09, start: 0.000000, bitrate: 1122 kb/s\n",
      "  Stream #29:0(und): Video: h264 (High) (avc1 / 0x31637661), yuv420p(tv, bt709), 1280x720, 1113 kb/s, 30 fps, 30 tbr, 15360 tbn, 60 tbc (default)\n",
      "    Metadata:\n",
      "      handler_name    : VideoHandler\n",
      "      vendor_id       : [0][0][0][0]\n",
      "      encoder         : Lavc59.37.100 libx264\n",
      "  Stream #29:1(und): Audio: aac (LC) (mp4a / 0x6134706D), 44100 Hz, stereo, fltp, 2 kb/s (default)\n",
      "    Metadata:\n",
      "      handler_name    : SoundHandler\n",
      "      vendor_id       : [0][0][0][0]\n",
      "Stream mapping:\n",
      "  Stream #0:0 (h264) -> overlay:main\n",
      "  Stream #1:0 (h264) -> chromakey\n",
      "  Stream #2:0 (h264) -> chromakey\n",
      "  Stream #3:0 (h264) -> chromakey\n",
      "  Stream #4:0 (h264) -> chromakey\n",
      "  Stream #5:0 (h264) -> chromakey\n",
      "  Stream #6:0 (h264) -> chromakey\n",
      "  Stream #7:0 (h264) -> chromakey\n",
      "  Stream #8:0 (h264) -> chromakey\n",
      "  Stream #9:0 (h264) -> chromakey\n",
      "  Stream #10:0 (h264) -> chromakey\n",
      "  Stream #11:0 (h264) -> chromakey\n",
      "  Stream #12:0 (h264) -> chromakey\n",
      "  Stream #13:0 (h264) -> chromakey\n",
      "  Stream #14:0 (h264) -> chromakey\n",
      "  Stream #15:0 (h264) -> chromakey\n",
      "  Stream #16:0 (h264) -> chromakey\n",
      "  Stream #17:0 (h264) -> chromakey\n",
      "  Stream #18:0 (h264) -> chromakey\n",
      "  Stream #19:0 (h264) -> chromakey\n",
      "  Stream #20:0 (h264) -> chromakey\n",
      "  Stream #21:0 (h264) -> chromakey\n",
      "  Stream #22:0 (h264) -> chromakey\n",
      "  Stream #23:0 (h264) -> chromakey\n",
      "  Stream #24:0 (h264) -> chromakey\n",
      "  Stream #25:0 (h264) -> chromakey\n",
      "  Stream #26:0 (h264) -> chromakey\n",
      "  Stream #27:0 (h264) -> chromakey\n",
      "  Stream #28:0 (h264) -> chromakey\n",
      "  Stream #29:0 (h264) -> chromakey\n",
      "  overlay -> Stream #0:0 (libx264)\n",
      "Press [q] to stop, [?] for help\n",
      "[libx264 @ 0x55b104868c00] using cpu capabilities: MMX2 SSE2Fast SSSE3 SSE4.2 AVX FMA3 BMI2 AVX2\n",
      "[libx264 @ 0x55b104868c00] profile High, level 3.1, 4:2:0, 8-bit\n",
      "[libx264 @ 0x55b104868c00] 264 - core 163 r3060 5db6aa6 - H.264/MPEG-4 AVC codec - Copyleft 2003-2021 - http://www.videolan.org/x264.html - options: cabac=1 ref=2 deblock=1:0:0 analyse=0x3:0x113 me=hex subme=6 psy=1 psy_rd=1.00:0.00 mixed_ref=1 me_range=16 chroma_me=1 trellis=1 8x8dct=1 cqm=0 deadzone=21,11 fast_pskip=1 chroma_qp_offset=-2 threads=22 lookahead_threads=3 sliced_threads=0 nr=0 decimate=1 interlaced=0 bluray_compat=0 constrained_intra=0 bframes=3 b_pyramid=2 b_adapt=1 b_bias=0 direct=1 weightb=1 open_gop=0 weightp=1 keyint=250 keyint_min=25 scenecut=40 intra_refresh=0 rc_lookahead=30 rc=crf mbtree=1 crf=23.0 qcomp=0.60 qpmin=0 qpmax=69 qpstep=4 ip_ratio=1.40 aq=1:1.00\n",
      "Output #0, mp4, to 'videos/temp.mp4':\n",
      "  Metadata:\n",
      "    major_brand     : isom\n",
      "    minor_version   : 512\n",
      "    compatible_brands: isomiso2avc1mp41\n",
      "    encoder         : Lavf58.76.100\n",
      "  Stream #0:0: Video: h264 (avc1 / 0x31637661), yuv420p(progressive), 1280x720, q=2-31, 30 fps, 15360 tbn (default)\n",
      "    Metadata:\n",
      "      encoder         : Lavc58.134.100 libx264\n",
      "    Side data:\n",
      "      cpb: bitrate max/min/avg: 0/0/0 buffer size: 0 vbv_delay: N/A\n",
      "frame= 5518 fps= 19 q=-1.0 Lsize=   34904kB time=00:03:03.83 bitrate=1555.4kbits/s speed=0.625x    \n",
      "video:34840kB audio:0kB subtitle:0kB other streams:0kB global headers:0kB muxing overhead: 0.185886%\n",
      "[libx264 @ 0x55b104868c00] frame I:39    Avg QP:18.90  size: 44845\n",
      "[libx264 @ 0x55b104868c00] frame P:1560  Avg QP:21.06  size: 12712\n",
      "[libx264 @ 0x55b104868c00] frame B:3919  Avg QP:24.35  size:  3596\n",
      "[libx264 @ 0x55b104868c00] consecutive B-frames:  3.1%  4.5%  6.0% 86.3%\n",
      "[libx264 @ 0x55b104868c00] mb I  I16..4: 17.5% 64.7% 17.8%\n",
      "[libx264 @ 0x55b104868c00] mb P  I16..4:  2.6%  9.7%  3.7%  P16..4: 23.1%  6.2%  3.2%  0.0%  0.0%    skip:51.5%\n",
      "[libx264 @ 0x55b104868c00] mb B  I16..4:  1.1%  0.8%  0.8%  B16..8: 10.0%  2.4%  0.4%  direct: 2.9%  skip:81.6%  L0:46.1% L1:51.3% BI: 2.6%\n",
      "[libx264 @ 0x55b104868c00] 8x8 transform intra:52.3% inter:60.9%\n",
      "[libx264 @ 0x55b104868c00] coded y,uvDC,uvAC intra: 39.7% 69.8% 44.0% inter: 3.9% 8.3% 2.0%\n",
      "[libx264 @ 0x55b104868c00] i16 v,h,dc,p: 55% 29% 10%  7%\n",
      "[libx264 @ 0x55b104868c00] i8 v,h,dc,ddl,ddr,vr,hd,vl,hu: 29% 18% 30%  4%  3%  3%  4%  4%  4%\n",
      "[libx264 @ 0x55b104868c00] i4 v,h,dc,ddl,ddr,vr,hd,vl,hu: 25% 19% 27%  6%  5%  5%  5%  5%  4%\n",
      "[libx264 @ 0x55b104868c00] i8c dc,h,v,p: 50% 24% 21%  5%\n",
      "[libx264 @ 0x55b104868c00] Weighted P-Frames: Y:3.4% UV:3.3%\n",
      "[libx264 @ 0x55b104868c00] ref P L0: 71.6% 28.4%\n",
      "[libx264 @ 0x55b104868c00] ref B L0: 81.7% 18.3%\n",
      "[libx264 @ 0x55b104868c00] ref B L1: 95.5%  4.5%\n",
      "[libx264 @ 0x55b104868c00] kb/s:1551.65\n"
     ]
    }
   ],
   "source": [
    "videos = [\n",
    "    'videos/generate_image_2100083967.mp4',\n",
    "    'videos/generate_image_153043508.mp4',\n",
    "    'videos/generate_image_4011827915.mp4',\n",
    "    'videos/generate_image_785102867.mp4',\n",
    "    'videos/generate_image_1867083839.mp4',\n",
    "    'videos/generate_image_2388548775.mp4',\n",
    "    'videos/generate_image_922777621.mp4',\n",
    "    'videos/generate_image_44747570.mp4',\n",
    "    'videos/generate_image_2853936330.mp4',\n",
    "    'videos/generate_image_4132421608.mp4',\n",
    "    'videos/generate_image_3241110339.mp4',\n",
    "    'videos/generate_image_2085525651.mp4',\n",
    "    'videos/generate_image_2807443263.mp4',\n",
    "    'videos/generate_image_3209975558.mp4',\n",
    "    'videos/generate_image_372342395.mp4',\n",
    "    'videos/generate_image_1961641235.mp4',\n",
    "    'videos/generate_image_140428230.mp4',\n",
    "    'videos/generate_image_212215046.mp4',\n",
    "    'videos/generate_image_3835633929.mp4',\n",
    "    'videos/generate_image_2469846397.mp4',\n",
    "    'videos/generate_image_1384506200.mp4',\n",
    "    'videos/generate_image_1460667192.mp4',\n",
    "    'videos/generate_image_3494860276.mp4',\n",
    "    'videos/generate_image_1117754965.mp4',\n",
    "    'videos/generate_image_2771555061.mp4',\n",
    "    'videos/generate_image_1163500809.mp4',\n",
    "    'videos/generate_image_166168533.mp4',\n",
    "    'videos/generate_image_1711098373.mp4',\n",
    "    'videos/generate_image_2033996214.mp4',\n",
    "    'videos/generate_image_712697614.mp4',\n",
    "        \n",
    "    ]\n",
    "\n",
    "\n",
    "overlay_videos = [\n",
    "        'videos/vecteezy_2-color-liquid-black-and-red-transition-green-screen_49115368.mp4',\n",
    "        'videos/vecteezy_red-liquid-transition-green-screen_49115367.mp4',\n",
    "        'videos/vecteezy_transition-ink-gradient-color-green-screen-free_48868911.mp4',\n",
    "        'videos/vecteezy_transitions-love-green-screen_48868982.mp4',\n",
    "        \n",
    "    ]\n",
    "\n",
    "short_overlay_videos = [\n",
    "        'videos/1.mp4',\n",
    "        'videos/2.mp4',\n",
    "        'videos/3.mp4',\n",
    "        'videos/4.mp4',  \n",
    "        'videos/5.mp4',  \n",
    "        'videos/6.mp4',  \n",
    "        'videos/7.mp4',  \n",
    "    ]\n",
    "\n",
    "output_video_avi = 'output.mp4'\n",
    "\n",
    "effects_next =[ 1 for i in range(len(videos))]\n",
    "\n",
    "concatenate_videos(videos, output_video_avi, overlay_videos, short_overlay_videos, effects_next)"
   ]
  },
  {
   "cell_type": "code",
   "execution_count": null,
   "id": "932d3e19-afdb-4335-b3c8-fa47a5791d21",
   "metadata": {},
   "outputs": [],
   "source": []
  }
 ],
 "metadata": {
  "kernelspec": {
   "display_name": "Python 3 (ipykernel)",
   "language": "python",
   "name": "python3"
  },
  "language_info": {
   "codemirror_mode": {
    "name": "ipython",
    "version": 3
   },
   "file_extension": ".py",
   "mimetype": "text/x-python",
   "name": "python",
   "nbconvert_exporter": "python",
   "pygments_lexer": "ipython3",
   "version": "3.11.10"
  }
 },
 "nbformat": 4,
 "nbformat_minor": 5
}
